# xmcd
#
# Track frame offsets:
#	150
#	14718
#	27112
#	45168
#	61894
#	77778
#	93334
#	109869
#	126274
#	141137
#	156097
#	172176
#	185249
#	197750
#
# Disc length: 2847 seconds
#
# Revision: 0
# Processed by: cddbd v1.5.2PL0 Copyright (c) Steve Scherf et al.
# Submitted via: EasyCDDAExtractor 11.5.3.1
#
DISCID=bf0b1d0e
DTITLE=Kari Piironen - Nyt Tai Ei Koskaan
DYEAR=2006
DGENRE=
TTITLE0=Nyt Tai Ei Koskaan
TTITLE1=Suukko Vain
TTITLE2=Rue de l'Amour
TTITLE3=Muisto
TTITLE4=Muistan Vielä Hyvin Sen
TTITLE5=Kaunis Ystäväin
TTITLE6=Orjan Ruusu
TTITLE7=Sata Päivää Satumaassa
TTITLE8=Muistojen Ruusut
TTITLE9=Valssisikermä operetista Mustalaisruhtinatar
TTITLE10=Tule Siniseen Yöhön
TTITLE11=Annoin Sun Mennä
TTITLE12=Ei Tiedä Kukaan
TTITLE13=Tahdon Kanssas Olla Vaan
EXTD=
EXTT0=
EXTT1=
EXTT2=
EXTT3=
EXTT4=
EXTT5=
EXTT6=
EXTT7=
EXTT8=
EXTT9=
EXTT10=
EXTT11=
EXTT12=
EXTT13=
PLAYORDER=
